<svg width="13" height="13" viewBox="0 0 13 13" fill="none" xmlns="http://www.w3.org/2000/svg">
<path d="M5.95833 9.20825H7.04167V5.95825H5.95833V9.20825ZM6.5 4.87492C6.65347 4.87492 6.78212 4.82301 6.88594 4.71919C6.98976 4.61537 7.04167 4.48672 7.04167 4.33325C7.04167 4.17978 6.98976 4.05113 6.88594 3.94731C6.78212 3.8435 6.65347 3.79159 6.5 3.79159C6.34653 3.79159 6.21788 3.8435 6.11406 3.94731C6.01024 4.05113 5.95833 4.17978 5.95833 4.33325C5.95833 4.48672 6.01024 4.61537 6.11406 4.71919C6.21788 4.82301 6.34653 4.87492 6.5 4.87492ZM6.5 11.9166C5.7507 11.9166 5.04653 11.7744 4.3875 11.49C3.72847 11.2056 3.15521 10.8197 2.66771 10.3322C2.18021 9.84471 1.79427 9.27145 1.5099 8.61242C1.22552 7.95339 1.08333 7.24922 1.08333 6.49992C1.08333 5.75061 1.22552 5.04645 1.5099 4.38742C1.79427 3.72839 2.18021 3.15513 2.66771 2.66763C3.15521 2.18013 3.72847 1.79419 4.3875 1.50981C5.04653 1.22544 5.7507 1.08325 6.5 1.08325C7.24931 1.08325 7.95347 1.22544 8.6125 1.50981C9.27153 1.79419 9.84479 2.18013 10.3323 2.66763C10.8198 3.15513 11.2057 3.72839 11.4901 4.38742C11.7745 5.04645 11.9167 5.75061 11.9167 6.49992C11.9167 7.24922 11.7745 7.95339 11.4901 8.61242C11.2057 9.27145 10.8198 9.84471 10.3323 10.3322C9.84479 10.8197 9.27153 11.2056 8.6125 11.49C7.95347 11.7744 7.24931 11.9166 6.5 11.9166ZM6.5 10.8333C7.70972 10.8333 8.73438 10.4135 9.57396 9.57388C10.4135 8.73429 10.8333 7.70964 10.8333 6.49992C10.8333 5.2902 10.4135 4.26554 9.57396 3.42596C8.73438 2.58638 7.70972 2.16659 6.5 2.16659C5.29028 2.16659 4.26563 2.58638 3.42604 3.42596C2.58646 4.26554 2.16667 5.2902 2.16667 6.49992C2.16667 7.70964 2.58646 8.73429 3.42604 9.57388C4.26563 10.4135 5.29028 10.8333 6.5 10.8333Z" fill="black"/>
</svg>
