<svg width="10" height="10" viewBox="0 0 10 10" fill="none" xmlns="http://www.w3.org/2000/svg">
<path d="M4.44444 5.55556C4.60185 5.55556 4.7338 5.50231 4.84028 5.39583C4.94676 5.28935 5 5.15741 5 5C5 4.84259 4.94676 4.71065 4.84028 4.60417C4.7338 4.49769 4.60185 4.44444 4.44444 4.44444C4.28704 4.44444 4.15509 4.49769 4.04861 4.60417C3.94213 4.71065 3.88889 4.84259 3.88889 5C3.88889 5.15741 3.94213 5.28935 4.04861 5.39583C4.15509 5.50231 4.28704 5.55556 4.44444 5.55556ZM2.22222 10V8.88889L5.55556 8.33333V2.15278C5.55556 2.01389 5.51389 1.88889 5.43056 1.77778C5.34722 1.66667 5.24074 1.60185 5.11111 1.58333L2.22222 1.11111V0L5.27778 0.5C5.68519 0.574074 6.01852 0.763889 6.27778 1.06944C6.53704 1.375 6.66667 1.73148 6.66667 2.13889V9.25L2.22222 10ZM0 10V8.88889H1.11111V1.11111C1.11111 0.796296 1.21991 0.532407 1.4375 0.319444C1.65509 0.106481 1.91667 0 2.22222 0H7.77778C8.09259 0 8.35648 0.106481 8.56944 0.319444C8.78241 0.532407 8.88889 0.796296 8.88889 1.11111V8.88889H10V10H0ZM2.22222 8.88889H7.77778V1.11111H2.22222V8.88889Z" fill="black"/>
</svg>
