<svg width="9" height="11" viewBox="0 0 9 11" fill="none" xmlns="http://www.w3.org/2000/svg">
<path d="M1.125 9.37953L2.23594 8.94007C2.14219 8.67457 2.05547 8.40449 1.97578 8.12984C1.89609 7.85518 1.83281 7.58052 1.78594 7.30587L1.125 7.74532V9.37953ZM3.375 8.80275H5.625C5.79375 8.43654 5.92969 7.99022 6.03281 7.4638C6.13594 6.93737 6.1875 6.3995 6.1875 5.85019C6.1875 4.94382 6.03281 4.08552 5.72344 3.27528C5.41406 2.46504 5.00625 1.8402 4.5 1.40075C3.99375 1.8402 3.58594 2.46504 3.27656 3.27528C2.96719 4.08552 2.8125 4.94382 2.8125 5.85019C2.8125 6.3995 2.86406 6.93737 2.96719 7.4638C3.07031 7.99022 3.20625 8.43654 3.375 8.80275ZM4.5 6.05618C4.19062 6.05618 3.92578 5.94861 3.70547 5.73346C3.48516 5.51831 3.375 5.25968 3.375 4.95755C3.375 4.65543 3.48516 4.3968 3.70547 4.18165C3.92578 3.9665 4.19062 3.85893 4.5 3.85893C4.80937 3.85893 5.07422 3.9665 5.29453 4.18165C5.51484 4.3968 5.625 4.65543 5.625 4.95755C5.625 5.25968 5.51484 5.51831 5.29453 5.73346C5.07422 5.94861 4.80937 6.05618 4.5 6.05618ZM7.875 9.37953V7.74532L7.21406 7.30587C7.16719 7.58052 7.10391 7.85518 7.02422 8.12984C6.94453 8.40449 6.85781 8.67457 6.76406 8.94007L7.875 9.37953ZM4.5 0C5.42812 0.659176 6.12891 1.49688 6.60234 2.51311C7.07578 3.52934 7.3125 4.71036 7.3125 6.05618L8.49375 6.82522C8.65312 6.92593 8.77734 7.05868 8.86641 7.22347C8.95547 7.38826 9 7.56221 9 7.74532V11L6.20156 9.90137H2.79844L0 11V7.74532C0 7.56221 0.0445312 7.38826 0.133594 7.22347C0.222656 7.05868 0.346875 6.92593 0.50625 6.82522L1.6875 6.05618C1.6875 4.71036 1.92422 3.52934 2.39766 2.51311C2.87109 1.49688 3.57187 0.659176 4.5 0Z" fill="black"/>
</svg>
