<svg width="10" height="10" viewBox="0 0 10 10" fill="none" xmlns="http://www.w3.org/2000/svg">
<path d="M1.11111 10C0.805556 10 0.543981 9.8912 0.326389 9.67361C0.108796 9.45602 0 9.19444 0 8.88889V1.11111C0 0.805556 0.108796 0.543981 0.326389 0.326389C0.543981 0.108796 0.805556 0 1.11111 0H8.88889C9.19444 0 9.45602 0.108796 9.67361 0.326389C9.8912 0.543981 10 0.805556 10 1.11111V8.88889C10 9.19444 9.8912 9.45602 9.67361 9.67361C9.45602 9.8912 9.19444 10 8.88889 10H1.11111ZM1.11111 8.88889H2.91667V6.38889H2.77778C2.62037 6.38889 2.48843 6.33565 2.38194 6.22917C2.27546 6.12269 2.22222 5.99074 2.22222 5.83333V1.11111H1.11111V8.88889ZM7.08333 8.88889H8.88889V1.11111H7.77778V5.83333C7.77778 5.99074 7.72454 6.12269 7.61806 6.22917C7.51157 6.33565 7.37963 6.38889 7.22222 6.38889H7.08333V8.88889ZM3.75 8.88889H6.25V6.38889H6.11111C5.9537 6.38889 5.82176 6.33565 5.71528 6.22917C5.6088 6.12269 5.55556 5.99074 5.55556 5.83333V1.11111H4.44444V5.83333C4.44444 5.99074 4.3912 6.12269 4.28472 6.22917C4.17824 6.33565 4.0463 6.38889 3.88889 6.38889H3.75V8.88889Z" fill="black"/>
</svg>
