<svg width="13" height="13" viewBox="0 0 13 13" fill="none" xmlns="http://www.w3.org/2000/svg">
<path d="M2.16667 11.3749C1.86875 11.3749 1.61372 11.2688 1.40156 11.0567C1.18941 10.8445 1.08333 10.5895 1.08333 10.2916V4.33325C1.08333 4.03534 1.18941 3.7803 1.40156 3.56815C1.61372 3.356 1.86875 3.24992 2.16667 3.24992H4.33333V2.16659C4.33333 1.86867 4.43941 1.61363 4.65156 1.40148C4.86372 1.18933 5.11875 1.08325 5.41667 1.08325H7.58333C7.88125 1.08325 8.13629 1.18933 8.34844 1.40148C8.56059 1.61363 8.66667 1.86867 8.66667 2.16659V3.24992H10.8333C11.1313 3.24992 11.3863 3.356 11.5984 3.56815C11.8106 3.7803 11.9167 4.03534 11.9167 4.33325V6.64888C11.7542 6.53152 11.5826 6.42995 11.4021 6.34419C11.2215 6.25843 11.0319 6.18395 10.8333 6.12075V4.33325H2.16667V10.2916H5.99896C6.02604 10.4812 6.06667 10.6662 6.12083 10.8468C6.175 11.0273 6.24271 11.2034 6.32396 11.3749H2.16667ZM5.41667 3.24992H7.58333V2.16659H5.41667V3.24992ZM9.75 12.4583C9.0007 12.4583 8.36198 12.1942 7.83385 11.6661C7.30573 11.1379 7.04167 10.4992 7.04167 9.74992C7.04167 9.00061 7.30573 8.3619 7.83385 7.83377C8.36198 7.30565 9.0007 7.04159 9.75 7.04159C10.4993 7.04159 11.138 7.30565 11.6661 7.83377C12.1943 8.3619 12.4583 9.00061 12.4583 9.74992C12.4583 10.4992 12.1943 11.1379 11.6661 11.6661C11.138 12.1942 10.4993 12.4583 9.75 12.4583ZM10.0208 9.64159V8.12492H9.47917V9.85825L10.6438 11.0228L11.0229 10.6437L10.0208 9.64159Z" fill="black"/>
</svg>
